<svg width="73" height="13" viewBox="0 0 73 13" fill="none" xmlns="http://www.w3.org/2000/svg">
<g filter="url(#filter0_d_17403_104640)">
<path d="M4.83398 2.18945C4.36133 2.18945 3.93555 2.27148 3.55664 2.43555C3.18164 2.5957 2.86133 2.83008 2.5957 3.13867C2.33398 3.44336 2.13281 3.8125 1.99219 4.24609C1.85156 4.67969 1.78125 5.16797 1.78125 5.71094C1.78125 6.42969 1.89258 7.05469 2.11523 7.58594C2.3418 8.11328 2.67773 8.52148 3.12305 8.81055C3.57227 9.09961 4.13281 9.24414 4.80469 9.24414C5.1875 9.24414 5.54688 9.21289 5.88281 9.15039C6.22266 9.08398 6.55273 9.00195 6.87305 8.9043V9.77148C6.56055 9.88867 6.23242 9.97461 5.88867 10.0293C5.54492 10.0879 5.13672 10.1172 4.66406 10.1172C3.79297 10.1172 3.06445 9.9375 2.47852 9.57812C1.89648 9.21484 1.45898 8.70312 1.16602 8.04297C0.876953 7.38281 0.732422 6.60352 0.732422 5.70508C0.732422 5.05664 0.822266 4.46484 1.00195 3.92969C1.18555 3.39062 1.45117 2.92578 1.79883 2.53516C2.15039 2.14453 2.58008 1.84375 3.08789 1.63281C3.59961 1.41797 4.18555 1.31055 4.8457 1.31055C5.2793 1.31055 5.69727 1.35352 6.09961 1.43945C6.50195 1.52539 6.86523 1.64844 7.18945 1.80859L6.79102 2.65234C6.51758 2.52734 6.2168 2.41992 5.88867 2.33008C5.56445 2.23633 5.21289 2.18945 4.83398 2.18945ZM9.55664 0.882812V3.60742C9.55664 3.76367 9.55273 3.92188 9.54492 4.08203C9.53711 4.23828 9.52344 4.38281 9.50391 4.51562H9.56836C9.70117 4.28906 9.86914 4.09961 10.0723 3.94727C10.2793 3.79102 10.5137 3.67383 10.7754 3.5957C11.0371 3.51367 11.3145 3.47266 11.6074 3.47266C12.123 3.47266 12.5527 3.55469 12.8965 3.71875C13.2441 3.88281 13.5039 4.13672 13.6758 4.48047C13.8516 4.82422 13.9395 5.26953 13.9395 5.81641V10H12.9785V5.88086C12.9785 5.3457 12.8555 4.94531 12.6094 4.67969C12.3672 4.41406 11.9941 4.28125 11.4902 4.28125C11.0137 4.28125 10.6328 4.37305 10.3477 4.55664C10.0664 4.73633 9.86328 5.00195 9.73828 5.35352C9.61719 5.70508 9.55664 6.13477 9.55664 6.64258V10H8.58398V0.882812H9.55664ZM18.3457 3.47266C19.1113 3.47266 19.6797 3.64453 20.0508 3.98828C20.4219 4.33203 20.6074 4.88086 20.6074 5.63477V10H19.8984L19.7109 9.05078H19.6641C19.4844 9.28516 19.2969 9.48242 19.1016 9.64258C18.9062 9.79883 18.6797 9.91797 18.4219 10C18.168 10.0781 17.8555 10.1172 17.4844 10.1172C17.0938 10.1172 16.7461 10.0488 16.4414 9.91211C16.1406 9.77539 15.9023 9.56836 15.7266 9.29102C15.5547 9.01367 15.4688 8.66211 15.4688 8.23633C15.4688 7.5957 15.7227 7.10352 16.2305 6.75977C16.7383 6.41602 17.5117 6.22852 18.5508 6.19727L19.6582 6.15039V5.75781C19.6582 5.20312 19.5391 4.81445 19.3008 4.5918C19.0625 4.36914 18.7266 4.25781 18.293 4.25781C17.957 4.25781 17.6367 4.30664 17.332 4.4043C17.0273 4.50195 16.7383 4.61719 16.4648 4.75L16.166 4.01172C16.4551 3.86328 16.7871 3.73633 17.1621 3.63086C17.5371 3.52539 17.9316 3.47266 18.3457 3.47266ZM19.6465 6.83594L18.668 6.87695C17.8672 6.9082 17.3027 7.03906 16.9746 7.26953C16.6465 7.5 16.4824 7.82617 16.4824 8.24805C16.4824 8.61523 16.5938 8.88672 16.8164 9.0625C17.0391 9.23828 17.334 9.32617 17.7012 9.32617C18.2715 9.32617 18.7383 9.16797 19.1016 8.85156C19.4648 8.53516 19.6465 8.06055 19.6465 7.42773V6.83594ZM24.6855 9.32031C24.8457 9.32031 25.0098 9.30664 25.1777 9.2793C25.3457 9.25195 25.4824 9.21875 25.5879 9.17969V9.93555C25.4746 9.98633 25.3164 10.0293 25.1133 10.0645C24.9141 10.0996 24.7188 10.1172 24.5273 10.1172C24.1875 10.1172 23.8789 10.0586 23.6016 9.94141C23.3242 9.82031 23.1016 9.61719 22.9336 9.33203C22.7695 9.04688 22.6875 8.65234 22.6875 8.14844V4.33984H21.7734V3.86523L22.6934 3.48438L23.0801 2.08984H23.666V3.57812H25.5469V4.33984H23.666V8.11914C23.666 8.52148 23.7578 8.82227 23.9414 9.02148C24.1289 9.2207 24.377 9.32031 24.6855 9.32031ZM35.2324 9.98828L34.0898 6.25C34.0391 6.08984 33.9902 5.93359 33.9434 5.78125C33.9004 5.625 33.8594 5.47656 33.8203 5.33594C33.7852 5.19141 33.752 5.05859 33.7207 4.9375C33.6934 4.8125 33.6699 4.70508 33.6504 4.61523H33.6094C33.5938 4.70508 33.5723 4.8125 33.5449 4.9375C33.5176 5.05859 33.4844 5.19141 33.4453 5.33594C33.4102 5.48047 33.3711 5.63281 33.3281 5.79297C33.2852 5.94922 33.2363 6.10742 33.1816 6.26758L31.9863 9.98828H30.8906L29.1211 3.56641H30.1289L31.0547 7.11133C31.1172 7.3457 31.1758 7.57812 31.2305 7.80859C31.2891 8.03516 31.3379 8.25 31.377 8.45312C31.4199 8.65234 31.4512 8.82617 31.4707 8.97461H31.5176C31.541 8.87695 31.5664 8.75977 31.5938 8.62305C31.625 8.48633 31.6582 8.3418 31.6934 8.18945C31.7324 8.0332 31.7734 7.87891 31.8164 7.72656C31.8594 7.57031 31.9023 7.42383 31.9453 7.28711L33.1289 3.56641H34.1777L35.3203 7.28125C35.3789 7.46875 35.4355 7.66406 35.4902 7.86719C35.5488 8.07031 35.6016 8.26758 35.6484 8.45898C35.6953 8.64648 35.7285 8.81445 35.748 8.96289H35.7949C35.8105 8.83008 35.8398 8.66602 35.8828 8.4707C35.9258 8.27539 35.9746 8.06055 36.0293 7.82617C36.0879 7.5918 36.1484 7.35352 36.2109 7.11133L37.1484 3.56641H38.1387L36.3633 9.98828H35.2324ZM40.2832 3.57812V10H39.3105V3.57812H40.2832ZM39.8086 1.17578C39.9688 1.17578 40.1055 1.22852 40.2188 1.33398C40.3359 1.43555 40.3945 1.5957 40.3945 1.81445C40.3945 2.0293 40.3359 2.18945 40.2188 2.29492C40.1055 2.40039 39.9688 2.45312 39.8086 2.45312C39.6406 2.45312 39.5 2.40039 39.3867 2.29492C39.2773 2.18945 39.2227 2.0293 39.2227 1.81445C39.2227 1.5957 39.2773 1.43555 39.3867 1.33398C39.5 1.22852 39.6406 1.17578 39.8086 1.17578ZM44.4199 9.32031C44.5801 9.32031 44.7441 9.30664 44.9121 9.2793C45.0801 9.25195 45.2168 9.21875 45.3223 9.17969V9.93555C45.209 9.98633 45.0508 10.0293 44.8477 10.0645C44.6484 10.0996 44.4531 10.1172 44.2617 10.1172C43.9219 10.1172 43.6133 10.0586 43.3359 9.94141C43.0586 9.82031 42.8359 9.61719 42.668 9.33203C42.5039 9.04688 42.4219 8.65234 42.4219 8.14844V4.33984H41.5078V3.86523L42.4277 3.48438L42.8145 2.08984H43.4004V3.57812H45.2812V4.33984H43.4004V8.11914C43.4004 8.52148 43.4922 8.82227 43.6758 9.02148C43.8633 9.2207 44.1113 9.32031 44.4199 9.32031ZM47.5957 0.882812V3.60742C47.5957 3.76367 47.5918 3.92188 47.584 4.08203C47.5762 4.23828 47.5625 4.38281 47.543 4.51562H47.6074C47.7402 4.28906 47.9082 4.09961 48.1113 3.94727C48.3184 3.79102 48.5527 3.67383 48.8145 3.5957C49.0762 3.51367 49.3535 3.47266 49.6465 3.47266C50.1621 3.47266 50.5918 3.55469 50.9355 3.71875C51.2832 3.88281 51.543 4.13672 51.7148 4.48047C51.8906 4.82422 51.9785 5.26953 51.9785 5.81641V10H51.0176V5.88086C51.0176 5.3457 50.8945 4.94531 50.6484 4.67969C50.4062 4.41406 50.0332 4.28125 49.5293 4.28125C49.0527 4.28125 48.6719 4.37305 48.3867 4.55664C48.1055 4.73633 47.9023 5.00195 47.7773 5.35352C47.6562 5.70508 47.5957 6.13477 47.5957 6.64258V10H46.623V0.882812H47.5957ZM62.4023 3.57812V10H61.6055L61.4648 9.09766H61.4121C61.2793 9.32031 61.1074 9.50781 60.8965 9.66016C60.6855 9.8125 60.4473 9.92578 60.1816 10C59.9199 10.0781 59.6406 10.1172 59.3438 10.1172C58.8359 10.1172 58.4102 10.0352 58.0664 9.87109C57.7227 9.70703 57.4629 9.45312 57.2871 9.10938C57.1152 8.76562 57.0293 8.32422 57.0293 7.78516V3.57812H58.0137V7.71484C58.0137 8.25 58.1348 8.65039 58.377 8.91602C58.6191 9.17773 58.9883 9.30859 59.4844 9.30859C59.9609 9.30859 60.3398 9.21875 60.6211 9.03906C60.9062 8.85938 61.1113 8.5957 61.2363 8.24805C61.3613 7.89648 61.4238 7.4668 61.4238 6.95898V3.57812H62.4023ZM68.6133 8.24219C68.6133 8.65234 68.5098 8.99805 68.3027 9.2793C68.0996 9.55664 67.8066 9.76562 67.4238 9.90625C67.0449 10.0469 66.5918 10.1172 66.0645 10.1172C65.6152 10.1172 65.2266 10.082 64.8984 10.0117C64.5703 9.94141 64.2832 9.8418 64.0371 9.71289V8.81641C64.2988 8.94531 64.6113 9.0625 64.9746 9.16797C65.3379 9.27344 65.709 9.32617 66.0879 9.32617C66.6426 9.32617 67.0449 9.23633 67.2949 9.05664C67.5449 8.87695 67.6699 8.63281 67.6699 8.32422C67.6699 8.14844 67.6191 7.99414 67.5176 7.86133C67.4199 7.72461 67.2539 7.59375 67.0195 7.46875C66.7852 7.33984 66.4609 7.19922 66.0469 7.04688C65.6367 6.89062 65.2812 6.73633 64.9805 6.58398C64.6836 6.42773 64.4531 6.23828 64.2891 6.01562C64.1289 5.79297 64.0488 5.50391 64.0488 5.14844C64.0488 4.60547 64.2676 4.18945 64.7051 3.90039C65.1465 3.60742 65.7246 3.46094 66.4395 3.46094C66.8262 3.46094 67.1875 3.5 67.5234 3.57812C67.8633 3.65234 68.1797 3.75391 68.4727 3.88281L68.1445 4.66211C67.8789 4.54883 67.5957 4.45312 67.2949 4.375C66.9941 4.29688 66.6875 4.25781 66.375 4.25781C65.9258 4.25781 65.5801 4.33203 65.3379 4.48047C65.0996 4.62891 64.9805 4.83203 64.9805 5.08984C64.9805 5.28906 65.0352 5.45312 65.1445 5.58203C65.2578 5.71094 65.4375 5.83203 65.6836 5.94531C65.9297 6.05859 66.2539 6.19141 66.6562 6.34375C67.0586 6.49219 67.4062 6.64648 67.6992 6.80664C67.9922 6.96289 68.2168 7.1543 68.373 7.38086C68.5332 7.60352 68.6133 7.89062 68.6133 8.24219Z" fill="#6A983C"/>
<path d="M3.55664 2.43555L3.94941 3.3552L3.95398 3.35322L3.55664 2.43555ZM2.5957 3.13867L1.8378 2.4863L1.83713 2.48708L2.5957 3.13867ZM2.11523 7.58594L1.19293 7.97249L1.19644 7.98068L2.11523 7.58594ZM3.12305 8.81055L2.57857 9.64933L2.58192 9.65149L3.12305 8.81055ZM5.88281 9.15039L6.06573 10.1336L6.07459 10.1318L5.88281 9.15039ZM6.87305 8.9043H7.87305V7.55398L6.58142 7.94776L6.87305 8.9043ZM6.87305 9.77148L7.22417 10.7078L7.87305 10.4645V9.77148H6.87305ZM5.88867 10.0293L5.73155 9.04166L5.72064 9.04352L5.88867 10.0293ZM2.47852 9.57812L1.94901 10.4265L1.95569 10.4306L2.47852 9.57812ZM1.16602 8.04297L0.249971 8.44408L0.251981 8.44861L1.16602 8.04297ZM1.00195 3.92969L0.0553389 3.60729L0.0539641 3.61138L1.00195 3.92969ZM1.79883 2.53516L1.05552 1.86618L1.05183 1.87033L1.79883 2.53516ZM3.08789 1.63281L3.4715 2.55632L3.475 2.55484L3.08789 1.63281ZM7.18945 1.80859L8.0937 2.2356L8.51324 1.34716L7.63234 0.912017L7.18945 1.80859ZM6.79102 2.65234L6.37526 3.56182L7.27352 3.97245L7.69526 3.07935L6.79102 2.65234ZM5.88867 2.33008L5.61089 3.29072L5.61773 3.2927L5.62458 3.29458L5.88867 2.33008ZM4.83398 1.18945C4.24432 1.18945 3.68051 1.2922 3.1593 1.51788L3.95398 3.35322C4.19058 3.25077 4.47833 3.18945 4.83398 3.18945V1.18945ZM3.16388 1.51591C2.64856 1.73599 2.20327 2.06171 1.8378 2.4863L3.3536 3.79104C3.51938 3.59844 3.71472 3.45541 3.9494 3.35519L3.16388 1.51591ZM1.83713 2.48708C1.47823 2.9049 1.21697 3.39492 1.04096 3.93759L2.94341 4.5546C3.04866 4.23008 3.18974 3.98181 3.35427 3.79026L1.83713 2.48708ZM1.04096 3.93759C0.862529 4.48777 0.78125 5.08265 0.78125 5.71094H2.78125C2.78125 5.25329 2.8406 4.87161 2.94341 4.5546L1.04096 3.93759ZM0.78125 5.71094C0.78125 6.53062 0.907993 7.29255 1.19296 7.97248L3.03751 7.1994C2.87716 6.81682 2.78125 6.32876 2.78125 5.71094H0.78125ZM1.19644 7.98068C1.49447 8.67438 1.95376 9.24375 2.57858 9.64933L3.66752 7.97177C3.40171 7.79922 3.18912 7.55219 3.03403 7.1912L1.19644 7.98068ZM2.58192 9.65149C3.22948 10.0682 3.99018 10.2441 4.80469 10.2441V8.24414C4.27544 8.24414 3.91506 8.13104 3.66417 7.96961L2.58192 9.65149ZM4.80469 10.2441C5.24165 10.2441 5.66277 10.2085 6.06572 10.1335L5.6999 8.16726C5.43098 8.21729 5.13335 8.24414 4.80469 8.24414V10.2441ZM6.07459 10.1318C6.44698 10.0591 6.81043 9.96883 7.16467 9.86083L6.58142 7.94776C6.29503 8.03508 5.99833 8.10891 5.69104 8.16895L6.07459 10.1318ZM5.87305 8.9043V9.77148H7.87305V8.9043H5.87305ZM6.52192 8.83516C6.27484 8.92781 6.01192 8.99711 5.73156 9.04172L6.04579 11.0169C6.45293 10.9521 6.84625 10.8495 7.22417 10.7078L6.52192 8.83516ZM5.72064 9.04352C5.44797 9.08999 5.09878 9.11719 4.66406 9.11719V11.1172C5.17466 11.1172 5.64187 11.0858 6.0567 11.0151L5.72064 9.04352ZM4.66406 9.11719C3.92874 9.11719 3.393 8.9659 3.00134 8.72569L1.95569 10.4306C2.7359 10.9091 3.6572 11.1172 4.66406 11.1172V9.11719ZM3.008 8.72981C2.6047 8.47808 2.29646 8.12498 2.08005 7.63733L0.251981 8.44861C0.621508 9.28127 1.18827 9.95161 1.94903 10.4264L3.008 8.72981ZM2.08205 7.64187C1.86023 7.13528 1.73242 6.49847 1.73242 5.70508H-0.267578C-0.267578 6.70856 -0.106324 7.63034 0.249983 8.44407L2.08205 7.64187ZM1.73242 5.70508C1.73242 5.14906 1.80939 4.66658 1.94994 4.24799L0.0539641 3.61138C-0.164862 4.26311 -0.267578 4.96423 -0.267578 5.70508H1.73242ZM1.94856 4.25208C2.09299 3.82801 2.29451 3.48236 2.54583 3.19998L1.05183 1.87033C0.607833 2.3692 0.278105 2.95324 0.0553478 3.60729L1.94856 4.25208ZM2.54212 3.20412C2.78958 2.92917 3.09449 2.71291 3.4715 2.55631L2.70428 0.709316C2.06567 0.974586 1.5112 1.3599 1.05553 1.86619L2.54212 3.20412ZM3.475 2.55484C3.84324 2.40024 4.29375 2.31055 4.8457 2.31055V0.310547C4.07734 0.310547 3.35598 0.435695 2.70078 0.71078L3.475 2.55484ZM4.8457 2.31055C5.21285 2.31055 5.56063 2.34689 5.89073 2.41739L6.30849 0.461512C5.8339 0.360143 5.34574 0.310547 4.8457 0.310547V2.31055ZM5.89073 2.41739C6.22291 2.48834 6.50605 2.58636 6.74657 2.70517L7.63234 0.912017C7.22442 0.710512 6.781 0.562436 6.30849 0.461512L5.89073 2.41739ZM6.2852 1.38159L5.88677 2.22534L7.69526 3.07935L8.0937 2.2356L6.2852 1.38159ZM7.20678 1.74287C6.87846 1.59278 6.5262 1.46783 6.15276 1.36558L5.62458 3.29458C5.90739 3.37201 6.1567 3.46191 6.37526 3.56182L7.20678 1.74287ZM6.16645 1.36943C5.74166 1.2466 5.29553 1.18945 4.83398 1.18945V3.18945C5.13025 3.18945 5.38725 3.22605 5.61089 3.29072L6.16645 1.36943ZM9.55664 0.882812H10.5566V-0.117188H9.55664V0.882812ZM9.54492 4.08203L10.5437 4.13197L10.5437 4.13075L9.54492 4.08203ZM9.50391 4.51562L8.51455 4.37013L8.34609 5.51562H9.50391V4.51562ZM9.56836 4.51562V5.51562H10.1413L10.4311 5.02134L9.56836 4.51562ZM10.0723 3.94727L10.6723 4.74727L10.6747 4.74545L10.0723 3.94727ZM10.7754 3.5957L11.0615 4.55401L11.0745 4.54993L10.7754 3.5957ZM12.8965 3.71875L12.4658 4.62124L12.4697 4.62311L12.8965 3.71875ZM13.6758 4.48047L12.7813 4.9277L12.7854 4.93576L13.6758 4.48047ZM13.9395 10V11H14.9395V10H13.9395ZM12.9785 10H11.9785V11H12.9785V10ZM12.6094 4.67969L11.8704 5.35346L11.8758 5.35931L12.6094 4.67969ZM10.3477 4.55664L10.886 5.39934L10.889 5.39744L10.3477 4.55664ZM9.73828 5.35352L8.79602 5.01849L8.7928 5.02785L9.73828 5.35352ZM9.55664 10V11H10.5566V10H9.55664ZM8.58398 10H7.58398V11H8.58398V10ZM8.58398 0.882812V-0.117188H7.58398V0.882812H8.58398ZM8.55664 0.882812V3.60742H10.5566V0.882812H8.55664ZM8.55664 3.60742C8.55664 3.74701 8.55315 3.88896 8.54611 4.03331L10.5437 4.13075C10.5523 3.95479 10.5566 3.78034 10.5566 3.60742H8.55664ZM8.54617 4.03209C8.5397 4.16144 8.52873 4.27367 8.51455 4.37013L10.4933 4.66112C10.5181 4.49196 10.5345 4.31512 10.5437 4.13197L8.54617 4.03209ZM9.50391 5.51562H9.56836V3.51562H9.50391V5.51562ZM10.4311 5.02134C10.4991 4.90533 10.579 4.81719 10.6723 4.74727L9.47227 3.14727C9.15924 3.38203 8.90328 3.6728 8.70566 4.00991L10.4311 5.02134ZM10.6747 4.74545C10.7817 4.66471 10.9077 4.5998 11.0614 4.55392L10.4894 2.63748C10.1196 2.74786 9.77694 2.91732 9.46986 3.14908L10.6747 4.74545ZM11.0745 4.54993C11.233 4.50024 11.409 4.47266 11.6074 4.47266V2.47266C11.2199 2.47266 10.8412 2.52711 10.4763 2.64148L11.0745 4.54993ZM11.6074 4.47266C12.024 4.47266 12.2953 4.53989 12.4658 4.62123L13.3272 2.81627C12.8101 2.56949 12.2221 2.47266 11.6074 2.47266V4.47266ZM12.4697 4.62311C12.6147 4.69153 12.7098 4.78448 12.7814 4.92768L14.5702 4.03326C14.2981 3.48896 13.8736 3.07409 13.3233 2.81439L12.4697 4.62311ZM12.7854 4.93576C12.8655 5.09228 12.9395 5.36606 12.9395 5.81641H14.9395C14.9395 5.17301 14.8376 4.55615 14.5661 4.02518L12.7854 4.93576ZM12.9395 5.81641V10H14.9395V5.81641H12.9395ZM13.9395 9H12.9785V11H13.9395V9ZM13.9785 10V5.88086H11.9785V10H13.9785ZM13.9785 5.88086C13.9785 5.21206 13.8266 4.52214 13.3429 4.00006L11.8758 5.35931C11.8843 5.36848 11.9785 5.47935 11.9785 5.88086H13.9785ZM13.3483 4.00593C12.8504 3.45978 12.159 3.28125 11.4902 3.28125V5.28125C11.6576 5.28125 11.7585 5.3037 11.8126 5.32294C11.8385 5.33217 11.8529 5.34036 11.8596 5.34473C11.866 5.34885 11.8688 5.35162 11.8704 5.35344L13.3483 4.00593ZM11.4902 3.28125C10.8962 3.28125 10.3058 3.39422 9.80632 3.71584L10.889 5.39744C10.9598 5.35187 11.1311 5.28125 11.4902 5.28125V3.28125ZM9.80927 3.71394C9.31868 4.02737 8.98625 4.48361 8.79607 5.01851L10.6805 5.68853C10.7403 5.5203 10.8141 5.44528 10.886 5.39934L9.80927 3.71394ZM8.7928 5.02785C8.6251 5.51471 8.55664 6.06161 8.55664 6.64258H10.5566C10.5566 6.20792 10.6093 5.89545 10.6838 5.67918L8.7928 5.02785ZM8.55664 6.64258V10H10.5566V6.64258H8.55664ZM9.55664 9H8.58398V11H9.55664V9ZM9.58398 10V0.882812H7.58398V10H9.58398ZM8.58398 1.88281H9.55664V-0.117188H8.58398V1.88281ZM20.6074 10V11H21.6074V10H20.6074ZM19.8984 10L18.9174 10.1938L19.0766 11H19.8984V10ZM19.7109 9.05078L20.692 8.85699L20.5327 8.05078H19.7109V9.05078ZM19.6641 9.05078V8.05078H19.1707L18.8705 8.44235L19.6641 9.05078ZM19.1016 9.64258L19.7263 10.4235L19.7356 10.4158L19.1016 9.64258ZM18.4219 10L18.716 10.9558L18.7251 10.9529L18.4219 10ZM16.4414 9.91211L16.0276 10.8225L16.032 10.8245L16.4414 9.91211ZM15.7266 9.29102L14.8765 9.81781L14.8819 9.82635L15.7266 9.29102ZM18.5508 6.19727L18.5808 7.19689L18.5931 7.19637L18.5508 6.19727ZM19.6582 6.15039L19.7005 7.1495L20.6582 7.10896V6.15039H19.6582ZM16.4648 4.75L15.5379 5.12519L15.9393 6.11697L16.9017 5.64951L16.4648 4.75ZM16.166 4.01172L15.7092 3.12215L14.8961 3.53967L15.2391 4.38691L16.166 4.01172ZM19.6465 6.83594H20.6465V5.79314L19.6046 5.83681L19.6465 6.83594ZM18.668 6.87695L18.707 7.8762L18.7098 7.87608L18.668 6.87695ZM18.3457 4.47266C18.9853 4.47266 19.2603 4.61917 19.3712 4.7219L20.7303 3.25466C20.0991 2.6699 19.2373 2.47266 18.3457 2.47266V4.47266ZM19.3712 4.7219C19.4555 4.79999 19.6074 5.02241 19.6074 5.63477H21.6074C21.6074 4.73931 21.3882 3.86407 20.7303 3.25466L19.3712 4.7219ZM19.6074 5.63477V10H21.6074V5.63477H19.6074ZM20.6074 9H19.8984V11H20.6074V9ZM20.8795 9.80621L20.692 8.85699L18.7299 9.24457L18.9174 10.1938L20.8795 9.80621ZM19.7109 8.05078H19.6641V10.0508H19.7109V8.05078ZM18.8705 8.44235C18.7298 8.62581 18.5945 8.76517 18.4675 8.86931L19.7356 10.4158C19.9993 10.1997 20.2389 9.9445 20.4577 9.65921L18.8705 8.44235ZM18.4769 8.86171C18.3848 8.93535 18.2693 8.99916 18.1187 9.04707L18.7251 10.9529C19.0901 10.8368 19.4277 10.6623 19.7263 10.4234L18.4769 8.86171ZM18.1278 9.04422C17.9986 9.08398 17.7921 9.11719 17.4844 9.11719V11.1172C17.9188 11.1172 18.3374 11.0723 18.716 10.9558L18.1278 9.04422ZM17.4844 9.11719C17.2112 9.11719 17.0067 9.06972 16.8508 8.99975L16.032 10.8245C16.4855 11.0279 16.9763 11.1172 17.4844 11.1172V9.11719ZM16.8552 9.00174C16.7303 8.94496 16.6422 8.8677 16.5712 8.75568L14.8819 9.82635C15.1625 10.269 15.551 10.6058 16.0276 10.8225L16.8552 9.00174ZM16.5766 8.76425C16.5284 8.68654 16.4688 8.53162 16.4688 8.23633H14.4688C14.4688 8.7926 14.581 9.3408 14.8766 9.81778L16.5766 8.76425ZM16.4688 8.23633C16.4688 7.90986 16.5724 7.73589 16.791 7.58788L15.6699 5.93166C14.8729 6.47114 14.4688 7.28155 14.4688 8.23633H16.4688ZM16.791 7.58788C17.0671 7.40103 17.6143 7.22588 18.5808 7.19681L18.5207 5.19772C17.4091 5.23115 16.4095 5.431 15.6699 5.93166L16.791 7.58788ZM18.5931 7.19637L19.7005 7.1495L19.6159 5.15129L18.5085 5.19816L18.5931 7.19637ZM20.6582 6.15039V5.75781H18.6582V6.15039H20.6582ZM20.6582 5.75781C20.6582 5.10995 20.5277 4.36965 19.9835 3.86114L18.618 5.32245C18.5814 5.28826 18.592 5.27552 18.6128 5.34337C18.6348 5.41527 18.6582 5.54627 18.6582 5.75781H20.6582ZM19.9835 3.86114C19.5058 3.41474 18.8945 3.25781 18.293 3.25781V5.25781C18.426 5.25781 18.5089 5.27509 18.5555 5.29054C18.5983 5.30471 18.6131 5.31789 18.618 5.32245L19.9835 3.86114ZM18.293 3.25781C17.8586 3.25781 17.435 3.32119 17.0268 3.45201L17.6372 5.35658C17.8384 5.29209 18.0554 5.25781 18.293 5.25781V3.25781ZM17.0268 3.45201C16.6794 3.56337 16.3461 3.69594 16.0279 3.85049L16.9017 5.64951C17.1304 5.53843 17.3753 5.44054 17.6372 5.35658L17.0268 3.45201ZM17.3918 4.37481L17.093 3.63653L15.2391 4.38691L15.5379 5.12519L17.3918 4.37481ZM16.6228 4.90129C16.8421 4.78867 17.1099 4.68434 17.4329 4.59351L16.8914 2.66821C16.4643 2.78832 16.068 2.93789 15.7092 3.12215L16.6228 4.90129ZM17.4329 4.59351C17.7144 4.51433 18.0174 4.47266 18.3457 4.47266V2.47266C17.8459 2.47266 17.3598 2.53645 16.8914 2.66821L17.4329 4.59351ZM19.6046 5.83681L18.6261 5.87783L18.7098 7.87608L19.6884 7.83506L19.6046 5.83681ZM18.629 5.87771C17.7942 5.91029 16.9781 6.04506 16.3998 6.45122L17.5494 8.08785C17.6274 8.03307 17.9402 7.90611 18.707 7.87619L18.629 5.87771ZM16.3998 6.45122C15.7891 6.88017 15.4824 7.5205 15.4824 8.24805H17.4824C17.4824 8.16886 17.4971 8.13984 17.4988 8.13636C17.4996 8.13477 17.5068 8.11777 17.5494 8.08785L16.3998 6.45122ZM15.4824 8.24805C15.4824 8.82345 15.6664 9.42864 16.1968 9.84738L17.4361 8.27762C17.4477 8.28679 17.4603 8.29933 17.4715 8.3144C17.4827 8.32933 17.4887 8.34161 17.4911 8.34764C17.4956 8.35842 17.4824 8.33308 17.4824 8.24805H15.4824ZM16.1968 9.84738C16.642 10.1989 17.176 10.3262 17.7012 10.3262V8.32617C17.492 8.32617 17.4361 8.27765 17.4361 8.27762L16.1968 9.84738ZM17.7012 10.3262C18.4662 10.3262 19.1806 10.1088 19.7583 9.60564L18.4448 8.09748C18.296 8.2271 18.0768 8.32617 17.7012 8.32617V10.3262ZM19.7583 9.60564C20.4031 9.04409 20.6465 8.2534 20.6465 7.42773H18.6465C18.6465 7.86769 18.5266 8.02622 18.4448 8.09748L19.7583 9.60564ZM20.6465 7.42773V6.83594H18.6465V7.42773H20.6465ZM25.5879 9.17969H26.5879V7.74293L25.2406 8.24194L25.5879 9.17969ZM25.5879 9.93555L25.9969 10.8481L26.5879 10.5832V9.93555H25.5879ZM25.1133 10.0645L24.9427 9.0791L24.9395 9.07967L25.1133 10.0645ZM23.6016 9.94141L23.2014 10.8579L23.2123 10.8626L23.6016 9.94141ZM22.9336 9.33203L22.0668 9.83075L22.072 9.83957L22.9336 9.33203ZM22.6875 4.33984H23.6875V3.33984H22.6875V4.33984ZM21.7734 4.33984H20.7734V5.33984H21.7734V4.33984ZM21.7734 3.86523L21.3909 2.94129L20.7734 3.19693V3.86523H21.7734ZM22.6934 3.48438L23.0759 4.40832L23.5266 4.22171L23.657 3.7516L22.6934 3.48438ZM23.0801 2.08984V1.08984H22.3197L22.1164 1.82262L23.0801 2.08984ZM23.666 2.08984H24.666V1.08984H23.666V2.08984ZM23.666 3.57812H22.666V4.57812H23.666V3.57812ZM25.5469 3.57812H26.5469V2.57812H25.5469V3.57812ZM25.5469 4.33984V5.33984H26.5469V4.33984H25.5469ZM23.666 4.33984V3.33984H22.666V4.33984H23.666ZM23.9414 9.02148L23.206 9.6992L23.2132 9.70685L23.9414 9.02148ZM24.6855 10.3203C24.9028 10.3203 25.1206 10.3018 25.3384 10.2663L25.0171 8.29229C24.8989 8.31152 24.7886 8.32031 24.6855 8.32031V10.3203ZM25.3384 10.2663C25.5412 10.2333 25.7469 10.1872 25.9352 10.1174L25.2406 8.24194C25.2179 8.25033 25.1502 8.27061 25.0171 8.29229L25.3384 10.2663ZM24.5879 9.17969V9.93555H26.5879V9.17969H24.5879ZM25.1788 9.02304C25.182 9.02161 25.1659 9.02894 25.1222 9.04082C25.0798 9.05234 25.0209 9.06557 24.9427 9.0791L25.2838 11.0498C25.5228 11.0084 25.774 10.948 25.9969 10.8481L25.1788 9.02304ZM24.9395 9.07967C24.7944 9.10527 24.6573 9.11719 24.5273 9.11719V11.1172C24.7802 11.1172 25.0337 11.0939 25.2871 11.0492L24.9395 9.07967ZM24.5273 9.11719C24.304 9.11719 24.1301 9.07912 23.9908 9.02026L23.2123 10.8626C23.6277 11.0381 24.071 11.1172 24.5273 11.1172V9.11719ZM24.0017 9.02495C23.9356 8.9961 23.8668 8.94602 23.7952 8.8245L22.072 9.83957C22.3363 10.2884 22.7128 10.6445 23.2014 10.8579L24.0017 9.02495ZM23.8004 8.83334C23.7581 8.75987 23.6875 8.56274 23.6875 8.14844H21.6875C21.6875 8.74195 21.781 9.33388 22.0668 9.83073L23.8004 8.83334ZM23.6875 8.14844V4.33984H21.6875V8.14844H23.6875ZM22.6875 3.33984H21.7734V5.33984H22.6875V3.33984ZM22.7734 4.33984V3.86523H20.7734V4.33984H22.7734ZM22.156 4.78918L23.0759 4.40832L22.3108 2.56043L21.3909 2.94129L22.156 4.78918ZM23.657 3.7516L24.0437 2.35707L22.1164 1.82262L21.7297 3.21715L23.657 3.7516ZM23.0801 3.08984H23.666V1.08984H23.0801V3.08984ZM22.666 2.08984V3.57812H24.666V2.08984H22.666ZM23.666 4.57812H25.5469V2.57812H23.666V4.57812ZM24.5469 3.57812V4.33984H26.5469V3.57812H24.5469ZM25.5469 3.33984H23.666V5.33984H25.5469V3.33984ZM22.666 4.33984V8.11914H24.666V4.33984H22.666ZM22.666 8.11914C22.666 8.65318 22.7857 9.24308 23.2061 9.69917L24.6768 8.3438C24.7018 8.37099 24.7004 8.38443 24.6913 8.35458C24.681 8.32093 24.666 8.24755 24.666 8.11914H22.666ZM23.2132 9.70685C23.6148 10.1335 24.1401 10.3203 24.6855 10.3203V8.32031C24.6622 8.32031 24.648 8.31842 24.6416 8.31727C24.6354 8.31617 24.6358 8.31565 24.6407 8.31763C24.6458 8.31969 24.6525 8.32306 24.6591 8.32764C24.6657 8.33218 24.6692 8.33571 24.6696 8.33612L23.2132 9.70685ZM35.2324 9.98828L34.2761 10.2806L34.4924 10.9883H35.2324V9.98828ZM34.0898 6.25L35.0462 5.95769L35.0431 5.94776L34.0898 6.25ZM33.9434 5.78125L32.9792 6.04641L32.9831 6.06093L32.9876 6.07534L33.9434 5.78125ZM33.8203 5.33594L32.8486 5.57229L32.8525 5.588L32.8568 5.60358L33.8203 5.33594ZM33.7207 4.9375L32.7438 5.1512L32.7478 5.16937L32.7524 5.18738L33.7207 4.9375ZM33.6504 4.61523L34.6276 4.4028L34.4564 3.61523H33.6504V4.61523ZM33.6094 4.61523V3.61523H32.7683L32.6242 4.44389L33.6094 4.61523ZM33.5449 4.9375L34.5204 5.15777L34.5218 5.1512L33.5449 4.9375ZM33.4453 5.33594L32.4799 5.07503L32.4766 5.08727L32.4736 5.09959L33.4453 5.33594ZM33.3281 5.79297L34.2923 6.05813L34.294 6.0521L33.3281 5.79297ZM33.1816 6.26758L32.2353 5.94443L32.2323 5.95305L32.2296 5.96171L33.1816 6.26758ZM31.9863 9.98828V10.9883H32.7154L32.9384 10.2941L31.9863 9.98828ZM30.8906 9.98828L29.9266 10.2539L30.1289 10.9883H30.8906V9.98828ZM29.1211 3.56641V2.56641H27.8083L28.157 3.83205L29.1211 3.56641ZM30.1289 3.56641L31.0965 3.31372L30.9013 2.56641H30.1289V3.56641ZM31.0547 7.11133L30.0871 7.36401L30.0885 7.36899L31.0547 7.11133ZM31.2305 7.80859L30.2575 8.03947L30.2598 8.04925L30.2623 8.05898L31.2305 7.80859ZM31.377 8.45312L30.3949 8.64197L30.3971 8.65299L30.3994 8.66396L31.377 8.45312ZM31.4707 8.97461L30.4792 9.10506L30.5937 9.97461H31.4707V8.97461ZM31.5176 8.97461V9.97461H32.306L32.49 9.20798L31.5176 8.97461ZM31.5938 8.62305L30.6189 8.40022L30.6158 8.41354L30.6132 8.42693L31.5938 8.62305ZM31.6934 8.18945L30.7232 7.94692L30.721 7.95574L30.719 7.96459L31.6934 8.18945ZM31.8164 7.72656L32.7789 7.99803L32.7806 7.99172L31.8164 7.72656ZM31.9453 7.28711L30.9924 6.98397L30.9913 6.98728L31.9453 7.28711ZM33.1289 3.56641V2.56641H32.3976L32.176 3.26326L33.1289 3.56641ZM34.1777 3.56641L35.1335 3.27243L34.9164 2.56641H34.1777V3.56641ZM35.3203 7.28125L34.3645 7.57523L34.3658 7.57952L35.3203 7.28125ZM35.4902 7.86719L34.5246 8.12716L34.5269 8.13578L34.5294 8.14435L35.4902 7.86719ZM35.6484 8.45898L34.6771 8.69686L34.6783 8.70152L35.6484 8.45898ZM35.748 8.96289L34.7566 9.09335L34.871 9.96289H35.748V8.96289ZM35.7949 8.96289V9.96289H36.6842L36.7881 9.07973L35.7949 8.96289ZM36.0293 7.82617L35.0592 7.58364L35.0572 7.59127L35.0555 7.59894L36.0293 7.82617ZM36.2109 7.11133L35.2442 6.85565L35.2427 6.86145L36.2109 7.11133ZM37.1484 3.56641V2.56641H36.3785L36.1817 3.31073L37.1484 3.56641ZM38.1387 3.56641L39.1025 3.83287L39.4526 2.56641H38.1387V3.56641ZM36.3633 9.98828V10.9883H37.1243L37.3271 10.2547L36.3633 9.98828ZM36.1888 9.69599L35.0462 5.95771L33.1335 6.54229L34.2761 10.2806L36.1888 9.69599ZM35.0431 5.94776C34.9931 5.79017 34.9451 5.63664 34.8991 5.48716L32.9876 6.07534C33.0353 6.23054 33.085 6.38952 33.1366 6.55224L35.0431 5.94776ZM34.9076 5.51609C34.8644 5.3591 34.8231 5.20983 34.7838 5.06829L32.8568 5.60358C32.8956 5.74329 32.9364 5.8909 32.9792 6.04641L34.9076 5.51609ZM34.792 5.09959C34.7559 4.95135 34.7216 4.81396 34.689 4.68762L32.7524 5.18738C32.7823 5.30323 32.8144 5.43146 32.8486 5.57229L34.792 5.09959ZM34.6976 4.7238C34.6703 4.59908 34.647 4.4921 34.6276 4.4028L32.6732 4.82766C32.6929 4.91806 32.7164 5.02592 32.7438 5.1512L34.6976 4.7238ZM33.6504 3.61523H33.6094V5.61523H33.6504V3.61523ZM32.6242 4.44389C32.6118 4.5152 32.5934 4.60775 32.568 4.7238L34.5218 5.1512C34.5511 5.01725 34.5757 4.89496 34.5946 4.78658L32.6242 4.44389ZM32.5695 4.71724C32.5458 4.82229 32.5161 4.94134 32.4799 5.07503L34.4107 5.59685C34.4527 5.44147 34.4894 5.2949 34.5204 5.15776L32.5695 4.71724ZM32.4736 5.09959C32.4405 5.2357 32.4034 5.38041 32.3623 5.53384L34.294 6.0521C34.3387 5.88522 34.3798 5.72524 34.417 5.57229L32.4736 5.09959ZM32.3639 5.52781C32.3265 5.66372 32.2837 5.80258 32.2353 5.94443L34.128 6.59072C34.1889 6.41226 34.2438 6.23472 34.2923 6.05813L32.3639 5.52781ZM32.2296 5.96171L31.0343 9.68242L32.9384 10.2941L34.1337 6.57344L32.2296 5.96171ZM31.9863 8.98828H30.8906V10.9883H31.9863V8.98828ZM31.8547 9.72263L30.0852 3.30076L28.157 3.83205L29.9266 10.2539L31.8547 9.72263ZM29.1211 4.56641H30.1289V2.56641H29.1211V4.56641ZM29.1614 3.81909L30.0871 7.36401L32.0222 6.85865L31.0965 3.31372L29.1614 3.81909ZM30.0885 7.36899C30.1486 7.59468 30.205 7.81817 30.2575 8.03947L32.2035 7.57772C32.1466 7.33808 32.0857 7.09672 32.0209 6.85367L30.0885 7.36899ZM30.2623 8.05898C30.3163 8.26777 30.3603 8.46197 30.3949 8.64197L32.359 8.26428C32.3155 8.03803 32.2618 7.80255 32.1986 7.55821L30.2623 8.05898ZM30.3994 8.66396C30.4386 8.84536 30.4643 8.99123 30.4792 9.10506L32.4622 8.84415C32.4381 8.66111 32.4013 8.45933 32.3545 8.24229L30.3994 8.66396ZM31.4707 9.97461H31.5176V7.97461H31.4707V9.97461ZM32.49 9.20798C32.5173 9.09427 32.5454 8.96397 32.5743 8.81916L30.6132 8.42693C30.5874 8.55557 30.5648 8.65964 30.5452 8.74124L32.49 9.20798ZM32.5686 8.84587C32.5997 8.7099 32.6327 8.56605 32.6678 8.41431L30.719 7.96459C30.6837 8.11754 30.6503 8.26275 30.6189 8.40022L32.5686 8.84587ZM32.6635 8.43199C32.7002 8.28525 32.7386 8.1406 32.7789 7.99802L30.854 7.4551C30.8082 7.61721 30.7647 7.78116 30.7232 7.94692L32.6635 8.43199ZM32.7806 7.99172C32.8208 7.84562 32.8604 7.71079 32.8993 7.58694L30.9913 6.98728C30.9443 7.13686 30.898 7.29501 30.8522 7.46141L32.7806 7.99172ZM32.8983 7.59025L34.0819 3.86955L32.176 3.26326L30.9924 6.98397L32.8983 7.59025ZM33.1289 4.56641H34.1777V2.56641H33.1289V4.56641ZM33.2219 3.86039L34.3645 7.57523L36.2761 6.98727L35.1335 3.27243L33.2219 3.86039ZM34.3658 7.57952C34.4202 7.75348 34.4731 7.93598 34.5246 8.12716L36.4559 7.60721C36.3979 7.39214 36.3376 7.18402 36.2748 6.98298L34.3658 7.57952ZM34.5294 8.14435C34.5845 8.33538 34.6337 8.51952 34.6771 8.69685L36.6197 8.22112C36.5694 8.01563 36.5131 7.80525 36.4511 7.59003L34.5294 8.14435ZM34.6783 8.70152C34.7184 8.86209 34.7432 8.99164 34.7566 9.09335L36.7395 8.83244C36.7138 8.63727 36.6722 8.43088 36.6186 8.21645L34.6783 8.70152ZM35.748 9.96289H35.7949V7.96289H35.748V9.96289ZM36.7881 9.07973C36.7984 8.99164 36.8205 8.86266 36.8595 8.68556L34.9062 8.25584C34.8592 8.46937 34.8227 8.66851 34.8018 8.84605L36.7881 9.07973ZM36.8595 8.68556C36.9014 8.49511 36.9492 8.28446 37.0031 8.0534L35.0555 7.59894C35 7.83664 34.9502 8.05567 34.9062 8.25584L36.8595 8.68556ZM36.9994 8.06871C37.0574 7.83687 37.1173 7.60103 37.1792 7.36121L35.2427 6.86145C35.1796 7.106 35.1184 7.34673 35.0592 7.58364L36.9994 8.06871ZM37.1777 7.367L38.1152 3.82208L36.1817 3.31073L35.2442 6.85566L37.1777 7.367ZM37.1484 4.56641H38.1387V2.56641H37.1484V4.56641ZM37.1748 3.29994L35.3994 9.72182L37.3271 10.2547L39.1025 3.83287L37.1748 3.29994ZM36.3633 8.98828H35.2324V10.9883H36.3633V8.98828ZM40.2832 3.57812H41.2832V2.57812H40.2832V3.57812ZM40.2832 10V11H41.2832V10H40.2832ZM39.3105 10H38.3105V11H39.3105V10ZM39.3105 3.57812V2.57812H38.3105V3.57812H39.3105ZM40.2188 1.33398L39.5373 2.06588L39.5504 2.07801L39.5638 2.08967L40.2188 1.33398ZM40.2188 2.29492L39.5498 1.55163L39.5435 1.55728L39.5373 1.56303L40.2188 2.29492ZM39.3867 2.29492L38.6926 3.01477L38.6989 3.02085L38.7053 3.02682L39.3867 2.29492ZM39.3867 1.33398L40.0672 2.06678L40.0681 2.06588L39.3867 1.33398ZM39.2832 3.57812V10H41.2832V3.57812H39.2832ZM40.2832 9H39.3105V11H40.2832V9ZM40.3105 10V3.57812H38.3105V10H40.3105ZM39.3105 4.57812H40.2832V2.57812H39.3105V4.57812ZM39.8086 2.17578C39.7771 2.17578 39.7281 2.1702 39.6714 2.14833C39.6141 2.12624 39.5687 2.09512 39.5373 2.06588L40.9002 0.60209C40.5948 0.317809 40.2119 0.175781 39.8086 0.175781V2.17578ZM39.5638 2.08967C39.4818 2.01859 39.4345 1.93676 39.4115 1.87385C39.3909 1.81769 39.3945 1.79074 39.3945 1.81445H41.3945C41.3945 1.42902 41.2886 0.937911 40.8737 0.578295L39.5638 2.08967ZM39.3945 1.81445C39.3945 1.83383 39.3916 1.80653 39.4115 1.75212C39.4336 1.69174 39.4773 1.61687 39.5498 1.55163L40.8877 3.03822C41.2839 2.68161 41.3945 2.20559 41.3945 1.81445H39.3945ZM39.5373 1.56303C39.5687 1.53378 39.6141 1.50266 39.6714 1.48057C39.7281 1.45871 39.7771 1.45312 39.8086 1.45312V3.45312C40.2119 3.45312 40.5948 3.3111 40.9002 3.02682L39.5373 1.56303ZM39.8086 1.45312C39.8304 1.45312 39.8738 1.45682 39.9283 1.47725C39.9841 1.49819 40.0321 1.52946 40.0681 1.56303L38.7053 3.02682C39.0202 3.31997 39.4113 3.45312 39.8086 3.45312V1.45312ZM40.0809 1.57508C40.1531 1.64472 40.1919 1.7196 40.21 1.77256C40.2263 1.82023 40.2227 1.84017 40.2227 1.81445H38.2227C38.2227 2.18652 38.3185 2.654 38.6926 3.01477L40.0809 1.57508ZM40.2227 1.81445C40.2227 1.78455 40.2269 1.8041 40.21 1.85342C40.1912 1.90857 40.149 1.99077 40.0672 2.06678L38.7063 0.601191C38.3139 0.965537 38.2227 1.44826 38.2227 1.81445H40.2227ZM40.0681 2.06588C40.0321 2.09944 39.9841 2.13072 39.9283 2.15166C39.8738 2.17208 39.8304 2.17578 39.8086 2.17578V0.175781C39.4113 0.175781 39.0202 0.308936 38.7053 0.60209L40.0681 2.06588ZM45.3223 9.17969H46.3223V7.74293L44.975 8.24194L45.3223 9.17969ZM45.3223 9.93555L45.7313 10.8481L46.3223 10.5832V9.93555H45.3223ZM44.8477 10.0645L44.6771 9.0791L44.6739 9.07967L44.8477 10.0645ZM43.3359 9.94141L42.9358 10.8579L42.9467 10.8626L43.3359 9.94141ZM42.668 9.33203L41.8011 9.83075L41.8063 9.83957L42.668 9.33203ZM42.4219 4.33984H43.4219V3.33984H42.4219V4.33984ZM41.5078 4.33984H40.5078V5.33984H41.5078V4.33984ZM41.5078 3.86523L41.1253 2.94129L40.5078 3.19693V3.86523H41.5078ZM42.4277 3.48438L42.8103 4.40832L43.261 4.22171L43.3914 3.7516L42.4277 3.48438ZM42.8145 2.08984V1.08984H42.054L41.8508 1.82262L42.8145 2.08984ZM43.4004 2.08984H44.4004V1.08984H43.4004V2.08984ZM43.4004 3.57812H42.4004V4.57812H43.4004V3.57812ZM45.2812 3.57812H46.2812V2.57812H45.2812V3.57812ZM45.2812 4.33984V5.33984H46.2812V4.33984H45.2812ZM43.4004 4.33984V3.33984H42.4004V4.33984H43.4004ZM43.6758 9.02148L42.9404 9.6992L42.9476 9.70685L43.6758 9.02148ZM44.4199 10.3203C44.6371 10.3203 44.855 10.3018 45.0728 10.2663L44.7514 8.29229C44.6333 8.31152 44.523 8.32031 44.4199 8.32031V10.3203ZM45.0728 10.2663C45.2756 10.2333 45.4813 10.1872 45.6696 10.1174L44.975 8.24194C44.9523 8.25033 44.8846 8.27061 44.7514 8.29229L45.0728 10.2663ZM44.3223 9.17969V9.93555H46.3223V9.17969H44.3223ZM44.9132 9.02304C44.9164 9.02161 44.9003 9.02894 44.8565 9.04082C44.8141 9.05234 44.7553 9.06557 44.6771 9.0791L45.0182 11.0498C45.2571 11.0084 45.5084 10.948 45.7313 10.8481L44.9132 9.02304ZM44.6739 9.07967C44.5288 9.10527 44.3917 9.11719 44.2617 9.11719V11.1172C44.5146 11.1172 44.7681 11.0939 45.0214 11.0492L44.6739 9.07967ZM44.2617 9.11719C44.0384 9.11719 43.8644 9.07912 43.7252 9.02026L42.9467 10.8626C43.3621 11.0381 43.8053 11.1172 44.2617 11.1172V9.11719ZM43.7361 9.02495C43.67 8.9961 43.6012 8.94602 43.5296 8.8245L41.8063 9.83957C42.0707 10.2884 42.4472 10.6445 42.9358 10.8579L43.7361 9.02495ZM43.5347 8.83334C43.4925 8.75987 43.4219 8.56274 43.4219 8.14844H41.4219C41.4219 8.74195 41.5153 9.33388 41.8012 9.83073L43.5347 8.83334ZM43.4219 8.14844V4.33984H41.4219V8.14844H43.4219ZM42.4219 3.33984H41.5078V5.33984H42.4219V3.33984ZM42.5078 4.33984V3.86523H40.5078V4.33984H42.5078ZM41.8903 4.78918L42.8103 4.40832L42.0452 2.56043L41.1253 2.94129L41.8903 4.78918ZM43.3914 3.7516L43.7781 2.35707L41.8508 1.82262L41.4641 3.21715L43.3914 3.7516ZM42.8145 3.08984H43.4004V1.08984H42.8145V3.08984ZM42.4004 2.08984V3.57812H44.4004V2.08984H42.4004ZM43.4004 4.57812H45.2812V2.57812H43.4004V4.57812ZM44.2812 3.57812V4.33984H46.2812V3.57812H44.2812ZM45.2812 3.33984H43.4004V5.33984H45.2812V3.33984ZM42.4004 4.33984V8.11914H44.4004V4.33984H42.4004ZM42.4004 8.11914C42.4004 8.65318 42.5201 9.24308 42.9404 9.69917L44.4111 8.3438C44.4362 8.37099 44.4348 8.38443 44.4257 8.35458C44.4154 8.32093 44.4004 8.24755 44.4004 8.11914H42.4004ZM42.9476 9.70685C43.3491 10.1335 43.8745 10.3203 44.4199 10.3203V8.32031C44.3965 8.32031 44.3824 8.31842 44.376 8.31727C44.3698 8.31617 44.3702 8.31565 44.3751 8.31763C44.3802 8.31969 44.3868 8.32306 44.3935 8.32764C44.4001 8.33218 44.4036 8.33571 44.404 8.33612L42.9476 9.70685ZM47.5957 0.882812H48.5957V-0.117188H47.5957V0.882812ZM47.584 4.08203L48.5827 4.13197L48.5828 4.13075L47.584 4.08203ZM47.543 4.51562L46.5536 4.37013L46.3852 5.51562H47.543V4.51562ZM47.6074 4.51562V5.51562H48.1804L48.4701 5.02134L47.6074 4.51562ZM48.1113 3.94727L48.7113 4.74727L48.7137 4.74545L48.1113 3.94727ZM48.8145 3.5957L49.1005 4.55401L49.1135 4.54993L48.8145 3.5957ZM50.9355 3.71875L50.5048 4.62124L50.5088 4.62311L50.9355 3.71875ZM51.7148 4.48047L50.8204 4.9277L50.8245 4.93576L51.7148 4.48047ZM51.9785 10V11H52.9785V10H51.9785ZM51.0176 10H50.0176V11H51.0176V10ZM50.6484 4.67969L49.9095 5.35346L49.9149 5.35931L50.6484 4.67969ZM48.3867 4.55664L48.9251 5.39934L48.9281 5.39744L48.3867 4.55664ZM47.7773 5.35352L46.8351 5.01849L46.8319 5.02785L47.7773 5.35352ZM47.5957 10V11H48.5957V10H47.5957ZM46.623 10H45.623V11H46.623V10ZM46.623 0.882812V-0.117188H45.623V0.882812H46.623ZM46.5957 0.882812V3.60742H48.5957V0.882812H46.5957ZM46.5957 3.60742C46.5957 3.74701 46.5922 3.88896 46.5852 4.03331L48.5828 4.13075C48.5914 3.95479 48.5957 3.78034 48.5957 3.60742H46.5957ZM46.5852 4.03209C46.5788 4.16144 46.5678 4.27367 46.5536 4.37013L48.5323 4.66112C48.5572 4.49196 48.5736 4.31512 48.5827 4.13197L46.5852 4.03209ZM47.543 5.51562H47.6074V3.51562H47.543V5.51562ZM48.4701 5.02134C48.5381 4.90533 48.6181 4.81719 48.7113 4.74727L47.5113 3.14727C47.1983 3.38203 46.9423 3.6728 46.7447 4.00991L48.4701 5.02134ZM48.7137 4.74545C48.8207 4.66471 48.9468 4.5998 49.1005 4.55392L48.5284 2.63748C48.1587 2.74786 47.816 2.91732 47.5089 3.14908L48.7137 4.74545ZM49.1135 4.54993C49.2721 4.50024 49.448 4.47266 49.6465 4.47266V2.47266C49.259 2.47266 48.8803 2.52711 48.5154 2.64148L49.1135 4.54993ZM49.6465 4.47266C50.063 4.47266 50.3344 4.53989 50.5048 4.62123L51.3663 2.81627C50.8492 2.56949 50.2612 2.47266 49.6465 2.47266V4.47266ZM50.5088 4.62311C50.6538 4.69153 50.7488 4.78448 50.8204 4.92768L52.6093 4.03326C52.3371 3.48896 51.9126 3.07409 51.3623 2.81439L50.5088 4.62311ZM50.8245 4.93576C50.9045 5.09228 50.9785 5.36606 50.9785 5.81641H52.9785C52.9785 5.17301 52.8767 4.55615 52.6052 4.02518L50.8245 4.93576ZM50.9785 5.81641V10H52.9785V5.81641H50.9785ZM51.9785 9H51.0176V11H51.9785V9ZM52.0176 10V5.88086H50.0176V10H52.0176ZM52.0176 5.88086C52.0176 5.21206 51.8657 4.52214 51.382 4.00006L49.9149 5.35931C49.9234 5.36848 50.0176 5.47935 50.0176 5.88086H52.0176ZM51.3874 4.00593C50.8894 3.45978 50.1981 3.28125 49.5293 3.28125V5.28125C49.6967 5.28125 49.7976 5.3037 49.8516 5.32294C49.8776 5.33217 49.8919 5.34036 49.8987 5.34473C49.905 5.34885 49.9078 5.35162 49.9095 5.35344L51.3874 4.00593ZM49.5293 3.28125C48.9353 3.28125 48.3449 3.39422 47.8454 3.71584L48.9281 5.39744C48.9988 5.35187 49.1702 5.28125 49.5293 5.28125V3.28125ZM47.8483 3.71394C47.3577 4.02737 47.0253 4.48361 46.8351 5.01851L48.7196 5.68853C48.7794 5.5203 48.8532 5.44528 48.9251 5.39934L47.8483 3.71394ZM46.8319 5.02785C46.6642 5.51471 46.5957 6.06161 46.5957 6.64258H48.5957C48.5957 6.20792 48.6483 5.89545 48.7228 5.67918L46.8319 5.02785ZM46.5957 6.64258V10H48.5957V6.64258H46.5957ZM47.5957 9H46.623V11H47.5957V9ZM47.623 10V0.882812H45.623V10H47.623ZM46.623 1.88281H47.5957V-0.117188H46.623V1.88281ZM62.4023 3.57812H63.4023V2.57812H62.4023V3.57812ZM62.4023 10V11H63.4023V10H62.4023ZM61.6055 10L60.6174 10.154L60.7492 11H61.6055V10ZM61.4648 9.09766L62.4529 8.94367L62.3211 8.09766H61.4648V9.09766ZM61.4121 9.09766V8.09766H60.8442L60.5533 8.58538L61.4121 9.09766ZM60.1816 10L59.9125 9.03689L59.904 9.03926L59.8956 9.04178L60.1816 10ZM57.2871 9.10938L56.3926 9.55661L56.3968 9.56466L57.2871 9.10938ZM57.0293 3.57812V2.57812H56.0293V3.57812H57.0293ZM58.0137 3.57812H59.0137V2.57812H58.0137V3.57812ZM58.377 8.91602L57.638 9.58979L57.643 9.59521L58.377 8.91602ZM60.6211 9.03906L60.088 8.19301L60.0827 8.19637L60.6211 9.03906ZM61.2363 8.24805L62.1774 8.58639L62.1785 8.58306L61.2363 8.24805ZM61.4238 3.57812V2.57812H60.4238V3.57812H61.4238ZM61.4023 3.57812V10H63.4023V3.57812H61.4023ZM62.4023 9H61.6055V11H62.4023V9ZM62.5935 9.84601L62.4529 8.94367L60.4768 9.25164L60.6174 10.154L62.5935 9.84601ZM61.4648 8.09766H61.4121V10.0977H61.4648V8.09766ZM60.5533 8.58538C60.4906 8.69054 60.4119 8.77664 60.311 8.84948L61.482 10.4708C61.803 10.239 62.068 9.95008 62.2709 9.60993L60.5533 8.58538ZM60.311 8.84948C60.2013 8.92869 60.0714 8.9925 59.9125 9.03689L60.4507 10.9631C60.8231 10.8591 61.1698 10.6963 61.482 10.4708L60.311 8.84948ZM59.8956 9.04178C59.7344 9.0899 59.5521 9.11719 59.3438 9.11719V11.1172C59.7291 11.1172 60.1054 11.0663 60.4677 10.9582L59.8956 9.04178ZM59.3438 9.11719C58.9377 9.11719 58.6693 9.0508 58.4971 8.96861L57.6357 10.7736C58.151 11.0195 58.7342 11.1172 59.3438 11.1172V9.11719ZM58.4971 8.96861C58.3544 8.9005 58.2547 8.80524 58.1775 8.65409L56.3968 9.56466C56.671 10.101 57.0909 10.5136 57.6357 10.7736L58.4971 8.96861ZM58.1815 8.66216C58.1013 8.50165 58.0293 8.22766 58.0293 7.78516H56.0293C56.0293 8.42077 56.1292 9.0296 56.3927 9.55659L58.1815 8.66216ZM58.0293 7.78516V3.57812H56.0293V7.78516H58.0293ZM57.0293 4.57812H58.0137V2.57812H57.0293V4.57812ZM57.0137 3.57812V7.71484H59.0137V3.57812H57.0137ZM57.0137 7.71484C57.0137 8.38014 57.1619 9.06764 57.638 9.58977L59.1159 8.24226C59.1076 8.23315 59.0137 8.11986 59.0137 7.71484H57.0137ZM57.643 9.59521C58.1392 10.1314 58.8219 10.3086 59.4844 10.3086V8.30859C59.3212 8.30859 59.2226 8.28671 59.1696 8.26792C59.1223 8.25117 59.1115 8.23745 59.1109 8.23683L57.643 9.59521ZM59.4844 10.3086C60.074 10.3086 60.6626 10.1992 61.1595 9.88176L60.0827 8.19637C60.0171 8.23826 59.8479 8.30859 59.4844 8.30859V10.3086ZM61.1542 9.8851C61.6466 9.57484 61.9845 9.12262 62.1774 8.58639L60.2953 7.9097C60.2381 8.06879 60.1659 8.14391 60.088 8.19302L61.1542 9.8851ZM62.1785 8.58306C62.3528 8.0929 62.4238 7.54255 62.4238 6.95898H60.4238C60.4238 7.39104 60.3698 7.70007 60.2941 7.91304L62.1785 8.58306ZM62.4238 6.95898V3.57812H60.4238V6.95898H62.4238ZM61.4238 4.57812H62.4023V2.57812H61.4238V4.57812ZM68.3027 9.2793L67.4974 8.68648L67.496 8.68843L68.3027 9.2793ZM67.4238 9.90625L67.079 8.96758L67.0759 8.96873L67.4238 9.90625ZM64.0371 9.71289H63.0371V10.318L63.5731 10.5987L64.0371 9.71289ZM64.0371 8.81641L64.479 7.91932L63.0371 7.20915V8.81641H64.0371ZM67.5176 7.86133L66.7038 8.44257L66.7133 8.45583L66.7232 8.46878L67.5176 7.86133ZM67.0195 7.46875L66.5376 8.34504L66.5489 8.3511L67.0195 7.46875ZM66.0469 7.04688L65.6909 7.98142L65.7016 7.98537L66.0469 7.04688ZM64.9805 6.58398L64.5147 7.4689L64.5216 7.47255L64.5286 7.47608L64.9805 6.58398ZM64.2891 6.01562L63.4772 6.59959L63.484 6.60882L64.2891 6.01562ZM64.7051 3.90039L65.2563 4.73473L65.2581 4.73357L64.7051 3.90039ZM67.5234 3.57812L67.2969 4.55222L67.3101 4.5551L67.5234 3.57812ZM68.4727 3.88281L69.3943 4.27087L69.7762 3.36385L68.8754 2.9675L68.4727 3.88281ZM68.1445 4.66211L67.7522 5.58195L68.6763 5.97604L69.0662 5.05017L68.1445 4.66211ZM65.3379 4.48047L64.8153 3.62784L64.8091 3.63169L65.3379 4.48047ZM65.1445 5.58203L64.382 6.22901L64.3876 6.23563L64.3934 6.24215L65.1445 5.58203ZM66.6562 6.34375L66.3021 7.27899L66.3101 7.28194L66.6562 6.34375ZM67.6992 6.80664L67.2195 7.68414L67.2286 7.68899L67.6992 6.80664ZM68.373 7.38086L67.5498 7.94859L67.5555 7.95675L67.5612 7.96479L68.373 7.38086ZM67.6133 8.24219C67.6133 8.47747 67.5569 8.60559 67.4974 8.68648L69.1081 9.87211C69.4626 9.39051 69.6133 8.82721 69.6133 8.24219H67.6133ZM67.496 8.68843C67.4295 8.7792 67.312 8.88198 67.079 8.96758L67.7686 10.8449C68.3013 10.6493 68.7697 10.3341 69.1095 9.87017L67.496 8.68843ZM67.0759 8.96873C66.8365 9.05758 66.5073 9.11719 66.0645 9.11719V11.1172C66.6763 11.1172 67.2534 11.0362 67.7718 10.8438L67.0759 8.96873ZM66.0645 9.11719C65.6636 9.11719 65.3486 9.08547 65.108 9.03392L64.6889 10.9895C65.1046 11.0786 65.5669 11.1172 66.0645 11.1172V9.11719ZM65.108 9.03392C64.8507 8.97879 64.6523 8.90627 64.5011 8.82706L63.5731 10.5987C63.9141 10.7773 64.2899 10.904 64.6889 10.9895L65.108 9.03392ZM65.0371 9.71289V8.81641H63.0371V9.71289H65.0371ZM63.5953 9.7135C63.9221 9.87448 64.2919 10.0111 64.6958 10.1283L65.2534 8.20762C64.9307 8.11393 64.6756 8.01615 64.479 7.91932L63.5953 9.7135ZM64.6958 10.1283C65.1498 10.2601 65.6148 10.3262 66.0879 10.3262V8.32617C65.8032 8.32617 65.5259 8.28674 65.2534 8.20762L64.6958 10.1283ZM66.0879 10.3262C66.7051 10.3262 67.369 10.2349 67.8786 9.86866L66.7113 8.24463C66.7262 8.23387 66.6994 8.25789 66.5877 8.28283C66.4778 8.30737 66.3153 8.32617 66.0879 8.32617V10.3262ZM67.8786 9.86866C68.3907 9.50057 68.6699 8.95383 68.6699 8.32422H66.6699C66.6699 8.33368 66.669 8.33239 66.6711 8.323C66.6733 8.31315 66.6779 8.29894 66.6861 8.28303C66.6942 8.26712 66.7031 8.25495 66.7101 8.24714C66.7167 8.23968 66.7186 8.2394 66.7113 8.24463L67.8786 9.86866ZM68.6699 8.32422C68.6699 7.94095 68.554 7.57046 68.3119 7.25388L66.7232 8.46878C66.708 8.44894 66.6926 8.42153 66.682 8.38928C66.6715 8.35759 66.6699 8.33383 66.6699 8.32422H68.6699ZM68.3313 7.28009C68.1068 6.96576 67.7897 6.74618 67.4901 6.5864L66.5489 8.3511C66.6265 8.39247 66.6743 8.42515 66.7008 8.446C66.7278 8.46728 66.722 8.46793 66.7038 8.44257L68.3313 7.28009ZM67.5014 6.59253C67.2042 6.42904 66.8273 6.26847 66.3922 6.10838L65.7016 7.98537C66.0946 8.12997 66.3661 8.25065 66.5376 8.34497L67.5014 6.59253ZM66.4029 6.11239C66.0162 5.9651 65.6942 5.82456 65.4323 5.69189L64.5286 7.47608C64.8683 7.6481 65.2572 7.81615 65.6909 7.98136L66.4029 6.11239ZM65.4462 5.69907C65.255 5.59843 65.1515 5.5003 65.0941 5.42243L63.484 6.60882C63.7547 6.97626 64.1122 7.25704 64.5147 7.4689L65.4462 5.69907ZM65.1009 5.4317C65.0948 5.42333 65.0488 5.35626 65.0488 5.14844H63.0488C63.0488 5.65155 63.163 6.16261 63.4773 6.59955L65.1009 5.4317ZM65.0488 5.14844C65.0488 4.92697 65.1108 4.83091 65.2563 4.73473L64.1538 3.06606C63.4244 3.54799 63.0488 4.28396 63.0488 5.14844H65.0488ZM65.2581 4.73357C65.4874 4.58134 65.8543 4.46094 66.4395 4.46094V2.46094C65.5949 2.46094 64.8055 2.6335 64.1521 3.06721L65.2581 4.73357ZM66.4395 4.46094C66.759 4.46094 67.0436 4.49322 67.2969 4.55213L67.75 2.60412C67.3314 2.50678 66.8934 2.46094 66.4395 2.46094V4.46094ZM67.3101 4.5551C67.5905 4.61633 67.8429 4.69822 68.0699 4.79813L68.8754 2.9675C68.5165 2.80959 68.1361 2.68836 67.7368 2.60115L67.3101 4.5551ZM67.551 3.49476L67.2229 4.27405L69.0662 5.05017L69.3943 4.27087L67.551 3.49476ZM68.5368 3.74227C68.2222 3.60808 67.8916 3.4968 67.5463 3.40712L67.0435 5.34288C67.2998 5.40945 67.5356 5.48957 67.7522 5.58195L68.5368 3.74227ZM67.5463 3.40712C67.163 3.30755 66.7718 3.25781 66.375 3.25781V5.25781C66.6032 5.25781 66.8253 5.2862 67.0435 5.34288L67.5463 3.40712ZM66.375 3.25781C65.8391 3.25781 65.2812 3.34231 64.8153 3.62787L65.8605 5.33307C65.8789 5.32175 66.0125 5.25781 66.375 5.25781V3.25781ZM64.8091 3.63169C64.309 3.94326 63.9805 4.45145 63.9805 5.08984H65.9805C65.9805 5.12143 65.9712 5.1839 65.9324 5.25007C65.8957 5.31258 65.8586 5.33425 65.8666 5.32925L64.8091 3.63169ZM63.9805 5.08984C63.9805 5.48162 64.0928 5.88818 64.382 6.22901L65.907 4.93505C65.9369 4.97021 65.9581 5.00983 65.9702 5.04608C65.9815 5.08018 65.9805 5.098 65.9805 5.08984H63.9805ZM64.3934 6.24215C64.6371 6.51947 64.9577 6.71205 65.2655 6.85369L66.1017 5.03693C66.0161 4.99751 65.9588 4.96433 65.9231 4.94026C65.8867 4.91571 65.8832 4.90772 65.8957 4.92192L64.3934 6.24215ZM65.2655 6.85369C65.5411 6.98056 65.8891 7.12257 66.3021 7.27896L67.0104 5.40854C66.6187 5.26025 66.3183 5.13663 66.1017 5.03693L65.2655 6.85369ZM66.3101 7.28194C66.6787 7.41793 66.9796 7.55293 67.2195 7.68409L68.1789 5.92919C67.8329 5.74004 67.4385 5.56645 67.0024 5.40556L66.3101 7.28194ZM67.2286 7.68899C67.4094 7.78542 67.5012 7.87806 67.5498 7.94859L69.1963 6.81313C68.9324 6.43053 68.5749 6.14036 68.1698 5.92429L67.2286 7.68899ZM67.5612 7.96479C67.5685 7.97489 67.6133 8.04103 67.6133 8.24219H69.6133C69.6133 7.74022 69.4979 7.23214 69.1849 6.79693L67.5612 7.96479Z" fill="black"/>
</g>
<defs>
<filter id="filter0_d_17403_104640" x="-3.26758" y="0.882812" width="75.8809" height="17.2344" filterUnits="userSpaceOnUse" color-interpolation-filters="sRGB">
<feFlood flood-opacity="0" result="BackgroundImageFix"/>
<feColorMatrix in="SourceAlpha" type="matrix" values="0 0 0 0 0 0 0 0 0 0 0 0 0 0 0 0 0 0 127 0" result="hardAlpha"/>
<feOffset dy="4"/>
<feGaussianBlur stdDeviation="2"/>
<feComposite in2="hardAlpha" operator="out"/>
<feColorMatrix type="matrix" values="0 0 0 0 0 0 0 0 0 0 0 0 0 0 0 0 0 0 0.25 0"/>
<feBlend mode="normal" in2="BackgroundImageFix" result="effect1_dropShadow_17403_104640"/>
<feBlend mode="normal" in="SourceGraphic" in2="effect1_dropShadow_17403_104640" result="shape"/>
</filter>
</defs>
</svg>
