<svg width="12" height="12" viewBox="0 0 12 12" fill="none" xmlns="http://www.w3.org/2000/svg">
<path d="M4.75 1H2.75C2.19772 1 1.75 1.44772 1.75 2V4C1.75 4.55229 2.19772 5 2.75 5H4.75C5.30228 5 5.75 4.55229 5.75 4V2C5.75 1.44772 5.30228 1 4.75 1Z" stroke="#E6704B" stroke-linecap="round" stroke-linejoin="bevel"/>
<path d="M4.75 7H2.75C2.19772 7 1.75 7.44772 1.75 8V10C1.75 10.5523 2.19772 11 2.75 11H4.75C5.30228 11 5.75 10.5523 5.75 10V8C5.75 7.44772 5.30228 7 4.75 7Z" stroke="#E6704B" stroke-linecap="round" stroke-linejoin="bevel"/>
<path d="M10.25 8H7.25" stroke="#E6704B" stroke-linecap="round" stroke-linejoin="bevel"/>
<path d="M9.25 10H7.25" stroke="#E6704B" stroke-linecap="round" stroke-linejoin="bevel"/>
<path d="M9.25 4H7.25" stroke="#E6704B" stroke-linecap="round" stroke-linejoin="bevel"/>
<path d="M10.25 2H7.25" stroke="#E6704B" stroke-linecap="round" stroke-linejoin="bevel"/>
</svg>
