<svg width="12" height="10" viewBox="0 0 12 10" fill="none" xmlns="http://www.w3.org/2000/svg">
<path fill-rule="evenodd" clip-rule="evenodd" d="M6.65461 1.44505C7.132 0.967658 7.77948 0.699463 8.45461 0.699463C9.12974 0.699463 9.77722 0.967658 10.2546 1.44505C10.732 1.92244 11.0002 2.56992 11.0002 3.24505C11.0002 3.92018 10.732 4.56766 10.2546 5.04505L9.59961 5.70005L5.99961 9.30005L2.39961 5.70005L1.74461 5.04505C1.26722 4.56766 0.999023 3.92018 0.999023 3.24505C0.999023 2.56992 1.26722 1.92244 1.74461 1.44505C2.222 0.967658 2.86948 0.699463 3.54461 0.699463C4.21974 0.699463 4.86722 0.967658 5.34461 1.44505L5.99961 2.10005L6.65461 1.44505Z" stroke="#E6704B" stroke-linecap="round" stroke-linejoin="bevel"/>
</svg>
