<svg width="17" height="14" viewBox="0 0 17 14" fill="none" xmlns="http://www.w3.org/2000/svg">
<path fill-rule="evenodd" clip-rule="evenodd" d="M9.13062 2.26023C9.76714 1.62371 10.6304 1.26611 11.5306 1.26611C12.4308 1.26611 13.2941 1.62371 13.9306 2.26023C14.5671 2.89674 14.9247 3.76005 14.9247 4.66022C14.9247 5.5604 14.5671 6.4237 13.9306 7.06022L13.0573 7.93356L8.25729 12.7336L3.45729 7.93356L2.58396 7.06022C1.94744 6.4237 1.58984 5.5604 1.58984 4.66022C1.58984 3.76005 1.94744 2.89674 2.58396 2.26023C3.22048 1.62371 4.08378 1.26611 4.98396 1.26611C5.88413 1.26611 6.74744 1.62371 7.38396 2.26023L8.25729 3.13356L9.13062 2.26023Z" stroke="#151515" stroke-width="2.5" stroke-linecap="round" stroke-linejoin="round"/>
</svg>
