<svg width="88" height="16" viewBox="0 0 88 16" fill="none" xmlns="http://www.w3.org/2000/svg">
<path fill-rule="evenodd" clip-rule="evenodd" d="M7.33336 2.12669C7.37941 1.98066 7.47082 1.85312 7.5943 1.76258C7.71778 1.67204 7.86691 1.62323 8.02003 1.62323C8.17315 1.62323 8.32228 1.67204 8.44576 1.76258C8.56924 1.85312 8.66065 1.98066 8.7067 2.12669L9.9467 5.94002H13.9467C14.1053 5.93403 14.2615 5.98012 14.3914 6.07125C14.5213 6.16238 14.6179 6.29355 14.6662 6.4447C14.7146 6.59586 14.7122 6.75869 14.6593 6.90833C14.6064 7.05796 14.506 7.18617 14.3734 7.27336L11.1267 9.62669L12.3667 13.4467C12.4157 13.5922 12.417 13.7496 12.3702 13.8958C12.3235 14.0421 12.2312 14.1696 12.1068 14.2597C11.9825 14.3498 11.8326 14.3978 11.6791 14.3966C11.5255 14.3955 11.3764 14.3453 11.2534 14.2534L8.00003 11.8734L4.75336 14.2334C4.63037 14.3253 4.48121 14.3755 4.32766 14.3766C4.17411 14.3778 4.02422 14.3298 3.89988 14.2397C3.77553 14.1496 3.68325 14.0221 3.6365 13.8758C3.58975 13.7296 3.59099 13.5722 3.64003 13.4267L4.88003 9.60669L1.63336 7.25336C1.50075 7.16617 1.40033 7.03796 1.34744 6.88833C1.29456 6.73869 1.29211 6.57586 1.34048 6.4247C1.38885 6.27355 1.48538 6.14238 1.61531 6.05125C1.74524 5.96012 1.90144 5.91403 2.06003 5.92002H6.06003L7.33336 2.12669Z" fill="#151515"/>
<path fill-rule="evenodd" clip-rule="evenodd" d="M25.3334 2.12663C25.3794 1.9806 25.4708 1.85306 25.5943 1.76252C25.7178 1.67198 25.8669 1.62317 26.02 1.62317C26.1731 1.62317 26.3223 1.67198 26.4458 1.76252C26.5692 1.85306 26.6606 1.9806 26.7067 2.12663L27.9467 5.93996H31.9467C32.1053 5.93397 32.2615 5.98006 32.3914 6.07119C32.5213 6.16232 32.6179 6.29348 32.6662 6.44464C32.7146 6.5958 32.7122 6.75863 32.6593 6.90827C32.6064 7.0579 32.506 7.18611 32.3734 7.2733L29.1267 9.62663L30.3667 13.4466C30.4157 13.5921 30.417 13.7495 30.3702 13.8958C30.3235 14.042 30.2312 14.1695 30.1068 14.2596C29.9825 14.3497 29.8326 14.3977 29.6791 14.3966C29.5255 14.3954 29.3764 14.3452 29.2534 14.2533L26 11.8733L22.7534 14.2333C22.6304 14.3252 22.4812 14.3754 22.3277 14.3766C22.1741 14.3777 22.0242 14.3297 21.8999 14.2396C21.7755 14.1495 21.6832 14.022 21.6365 13.8758C21.5898 13.7295 21.591 13.5721 21.64 13.4266L22.88 9.60663L19.6334 7.2533C19.5008 7.16611 19.4003 7.0379 19.3474 6.88827C19.2946 6.73863 19.2921 6.5758 19.3405 6.42464C19.3888 6.27348 19.4854 6.14232 19.6153 6.05119C19.7452 5.96006 19.9014 5.91397 20.06 5.91996H24.06L25.3334 2.12663Z" fill="#151515"/>
<path fill-rule="evenodd" clip-rule="evenodd" d="M43.3334 2.12669C43.3794 1.98066 43.4708 1.85312 43.5943 1.76258C43.7178 1.67204 43.8669 1.62323 44.02 1.62323C44.1731 1.62323 44.3223 1.67204 44.4458 1.76258C44.5692 1.85312 44.6606 1.98066 44.7067 2.12669L45.9467 5.94002H49.9467C50.1053 5.93403 50.2615 5.98012 50.3914 6.07125C50.5213 6.16238 50.6179 6.29355 50.6662 6.4447C50.7146 6.59586 50.7122 6.75869 50.6593 6.90833C50.6064 7.05796 50.506 7.18617 50.3734 7.27336L47.1267 9.62669L48.3667 13.4467C48.4157 13.5922 48.417 13.7496 48.3702 13.8958C48.3235 14.0421 48.2312 14.1696 48.1068 14.2597C47.9825 14.3498 47.8326 14.3978 47.6791 14.3966C47.5255 14.3955 47.3764 14.3453 47.2534 14.2534L44 11.8734L40.7534 14.2334C40.6304 14.3253 40.4812 14.3755 40.3277 14.3766C40.1741 14.3778 40.0242 14.3298 39.8999 14.2397C39.7755 14.1496 39.6832 14.0221 39.6365 13.8758C39.5898 13.7296 39.591 13.5722 39.64 13.4267L40.88 9.60669L37.6334 7.25336C37.5008 7.16617 37.4003 7.03796 37.3474 6.88833C37.2946 6.73869 37.2921 6.57586 37.3405 6.4247C37.3888 6.27355 37.4854 6.14238 37.6153 6.05125C37.7452 5.96012 37.9014 5.91403 38.06 5.92002H42.06L43.3334 2.12669Z" fill="#151515"/>
<path fill-rule="evenodd" clip-rule="evenodd" d="M61.3334 2.12663C61.3794 1.9806 61.4708 1.85306 61.5943 1.76252C61.7178 1.67198 61.8669 1.62317 62.02 1.62317C62.1731 1.62317 62.3223 1.67198 62.4458 1.76252C62.5692 1.85306 62.6606 1.9806 62.7067 2.12663L63.9467 5.93996H67.9467C68.1053 5.93397 68.2615 5.98006 68.3914 6.07119C68.5213 6.16232 68.6179 6.29348 68.6662 6.44464C68.7146 6.5958 68.7122 6.75863 68.6593 6.90827C68.6064 7.0579 68.506 7.18611 68.3734 7.2733L65.1267 9.62663L66.3667 13.4466C66.4157 13.5921 66.417 13.7495 66.3702 13.8958C66.3235 14.042 66.2312 14.1695 66.1068 14.2596C65.9825 14.3497 65.8326 14.3977 65.6791 14.3966C65.5255 14.3954 65.3764 14.3452 65.2534 14.2533L62 11.8733L58.7534 14.2333C58.6304 14.3252 58.4812 14.3754 58.3277 14.3766C58.1741 14.3777 58.0242 14.3297 57.8999 14.2396C57.7755 14.1495 57.6832 14.022 57.6365 13.8758C57.5898 13.7295 57.591 13.5721 57.64 13.4266L58.88 9.60663L55.6334 7.2533C55.5008 7.16611 55.4003 7.0379 55.3474 6.88827C55.2946 6.73863 55.2921 6.5758 55.3405 6.42464C55.3888 6.27348 55.4854 6.14232 55.6153 6.05119C55.7452 5.96006 55.9014 5.91397 56.06 5.91996H60.06L61.3334 2.12663Z" fill="#151515"/>
<path fill-rule="evenodd" clip-rule="evenodd" d="M79.3334 2.12663C79.3794 1.9806 79.4708 1.85306 79.5943 1.76252C79.7178 1.67198 79.8669 1.62317 80.02 1.62317C80.1731 1.62317 80.3223 1.67198 80.4458 1.76252C80.5692 1.85306 80.6606 1.9806 80.7067 2.12663L81.9467 5.93996H85.9467C86.1053 5.93397 86.2615 5.98006 86.3914 6.07119C86.5213 6.16232 86.6179 6.29348 86.6662 6.44464C86.7146 6.5958 86.7122 6.75863 86.6593 6.90827C86.6064 7.0579 86.506 7.18611 86.3734 7.2733L83.1267 9.62663L84.3667 13.4466C84.4157 13.5921 84.417 13.7495 84.3702 13.8958C84.3235 14.042 84.2312 14.1695 84.1068 14.2596C83.9825 14.3497 83.8326 14.3977 83.6791 14.3966C83.5255 14.3954 83.3764 14.3452 83.2534 14.2533L80 11.8733L76.7534 14.2333C76.6304 14.3252 76.4812 14.3754 76.3277 14.3766C76.1741 14.3777 76.0242 14.3297 75.8999 14.2396C75.7755 14.1495 75.6832 14.022 75.6365 13.8758C75.5898 13.7295 75.591 13.5721 75.64 13.4266L76.88 9.60663L73.6334 7.2533C73.5008 7.16611 73.4003 7.0379 73.3474 6.88827C73.2946 6.73863 73.2921 6.5758 73.3405 6.42464C73.3888 6.27348 73.4854 6.14232 73.6153 6.05119C73.7452 5.96006 73.9014 5.91397 74.06 5.91996H78.06L79.3334 2.12663Z" stroke="#EBEBEB" stroke-width="1.5" stroke-linecap="round" stroke-linejoin="round"/>
</svg>
