<svg width="19" height="18" viewBox="0 0 19 18" fill="none" xmlns="http://www.w3.org/2000/svg">
<path fill-rule="evenodd" clip-rule="evenodd" d="M8.42397 1.65814C8.48153 1.4756 8.59578 1.31617 8.75014 1.203C8.90449 1.08983 9.0909 1.02881 9.2823 1.02881C9.4737 1.02881 9.66011 1.08983 9.81446 1.203C9.96882 1.31617 10.0831 1.4756 10.1406 1.65814L11.6906 6.4248H16.6906C16.8889 6.41731 17.0841 6.47492 17.2465 6.58883C17.409 6.70275 17.5296 6.8667 17.5901 7.05565C17.6505 7.24459 17.6475 7.44814 17.5814 7.63518C17.5153 7.82222 17.3897 7.98248 17.224 8.09147L13.1656 11.0331L14.7156 15.8081C14.7769 15.99 14.7785 16.1867 14.72 16.3696C14.6616 16.5524 14.5463 16.7118 14.3908 16.8244C14.2354 16.937 14.048 16.997 13.8561 16.9955C13.6642 16.9941 13.4777 16.9314 13.324 16.8165L9.2573 13.8415L5.19897 16.7915C5.04522 16.9064 4.85877 16.9691 4.66684 16.9705C4.4749 16.972 4.28754 16.912 4.13211 16.7994C3.97668 16.6868 3.86133 16.5274 3.80289 16.3446C3.74445 16.1617 3.746 15.965 3.8073 15.7831L5.3573 11.0081L1.29897 8.06647C1.1332 7.95748 1.00768 7.79722 0.941567 7.61018C0.875458 7.42314 0.872401 7.21959 0.932863 7.03065C0.993325 6.8417 1.11398 6.67775 1.2764 6.56383C1.43881 6.44992 1.63406 6.39231 1.8323 6.3998H6.8323L8.42397 1.65814Z" stroke="#EBEBEB" stroke-width="1.5" stroke-linecap="round" stroke-linejoin="round"/>
</svg>
