<svg width="21" height="20" viewBox="0 0 21 20" fill="none" xmlns="http://www.w3.org/2000/svg">
<path fill-rule="evenodd" clip-rule="evenodd" d="M9.42397 2.65814C9.48153 2.4756 9.59578 2.31617 9.75014 2.203C9.90449 2.08983 10.0909 2.02881 10.2823 2.02881C10.4737 2.02881 10.6601 2.08983 10.8145 2.203C10.9688 2.31617 11.0831 2.4756 11.1406 2.65814L12.6906 7.4248H17.6906C17.8889 7.41731 18.0841 7.47492 18.2465 7.58883C18.409 7.70275 18.5296 7.8667 18.5901 8.05565C18.6505 8.24459 18.6475 8.44814 18.5814 8.63518C18.5153 8.82222 18.3897 8.98248 18.224 9.09147L14.1656 12.0331L15.7156 16.8081C15.7769 16.99 15.7785 17.1867 15.72 17.3696C15.6616 17.5524 15.5463 17.7118 15.3908 17.8244C15.2354 17.937 15.048 17.997 14.8561 17.9955C14.6642 17.9941 14.4777 17.9314 14.324 17.8165L10.2573 14.8415L6.19897 17.7915C6.04522 17.9064 5.85877 17.9691 5.66684 17.9705C5.4749 17.972 5.28754 17.912 5.13211 17.7994C4.97668 17.6868 4.86133 17.5274 4.80289 17.3446C4.74445 17.1617 4.746 16.965 4.8073 16.7831L6.3573 12.0081L2.29897 9.06647C2.1332 8.95748 2.00768 8.79722 1.94157 8.61018C1.87546 8.42314 1.8724 8.21959 1.93286 8.03065C1.99333 7.8417 2.11398 7.67775 2.2764 7.56383C2.43881 7.44992 2.63406 7.39231 2.8323 7.3998H7.8323L9.42397 2.65814Z" fill="#151515"/>
</svg>
